<svg viewBox="0 0 1440 856" preserveAspectRatio="none" fill="none" xmlns="http://www.w3.org/2000/svg">
<path d="M-124.915 87.2855C-13.5535 77.9543 90.0028 124.469 162.699 176.712C235.395 228.954 293.528 290.472 385.218 330.095C549.336 401.017 779.049 384.874 954.727 444.635C1081.19 487.659 1159.2 564.173 1270.34 618.703C1381.75 673.374 1512.53 713.456 1651.21 734.931C1694.18 741.585 1737.92 746.448 1782 749.397" stroke="black" stroke-width="1.5" stroke-miterlimit="10"/>
<path opacity="0.96" d="M-120.233 82.3036C-64.1306 76.3671 -8.25973 86.4157 40.3156 104.796C87.4911 122.679 128.187 148.136 161.485 174.757C229.092 228.615 281.561 291.031 366.289 333.428C452.297 376.379 559.543 394.013 670.367 411.122C754.938 424.199 841.076 436.62 918.222 461.021C933.369 465.816 947.905 471.007 961.949 476.503C1049.06 510.631 1117.27 556.909 1195.73 597.132C1211.53 605.231 1227.76 613.094 1244.64 620.556C1311.34 650.029 1383.9 675.673 1459.19 697.493C1513.2 713.139 1568.51 726.927 1623.45 738.128C1664.23 746.477 1704.76 753.407 1744.29 758.604" stroke="#0A0017" stroke-width="1.5" stroke-miterlimit="10"/>
<path opacity="0.91" d="M-115.552 77.3216C-59.9127 70.1876 -2.71621 80.6203 44.9228 99.8702C91.3011 118.674 129.448 145.267 160.271 172.797C222.788 228.276 269.593 291.579 347.36 336.755C426.276 382.428 526.56 405.474 634.724 425.746C717.311 441.257 803.44 454.457 881.716 477.396C897.058 481.903 911.853 486.721 926.204 491.788C1015.18 523.227 1087.26 564.455 1168.51 600.995C1184.86 608.355 1201.61 615.529 1218.93 622.397C1287.47 649.515 1361.17 673.928 1436.03 696.414C1489.71 712.529 1543.75 727.882 1595.68 741.303C1634.25 751.346 1671.59 760.338 1706.57 767.788" stroke="#14002E" stroke-width="1.5" stroke-miterlimit="10"/>
<path opacity="0.87" d="M-110.87 72.3397C-55.6948 64.0139 2.8273 74.825 49.5301 94.9448C95.1111 114.664 130.616 142.437 159.056 170.843C216.29 228.011 257.625 292.138 328.43 340.088C400.255 388.483 493.577 416.946 599.071 440.376C679.665 458.321 765.794 472.295 845.201 493.776C860.729 497.99 875.793 502.441 890.449 507.078C981.286 535.823 1057.25 572.007 1141.27 604.864C1158.18 611.484 1175.45 617.974 1193.23 624.244C1263.61 649.007 1338.43 672.188 1412.87 695.347C1466.2 711.931 1518.99 728.848 1567.9 744.494C1604.27 756.231 1638.41 767.291 1668.83 776.984" stroke="#1F0046" stroke-width="1.5" stroke-miterlimit="10"/>
<path opacity="0.83" d="M-106.198 67.3634C-51.4862 57.8401 8.36155 69.0354 54.128 90.025C98.9119 110.664 131.858 139.573 157.833 168.889C209.931 227.678 245.648 292.691 309.482 343.42C374.215 394.533 460.576 428.418 563.409 455.011C642.019 475.39 728.139 490.139 808.677 510.162C824.399 514.088 839.723 518.172 854.685 522.369C947.386 548.425 1027.22 579.554 1114.02 608.733C1131.49 614.608 1149.28 620.42 1167.51 626.091C1239.73 648.504 1315.69 670.448 1389.7 694.279C1442.69 711.326 1494.28 729.751 1540.13 747.685C1574.34 761.072 1605.23 774.244 1631.1 786.185" stroke="#29005D" stroke-width="1.5" stroke-miterlimit="10"/>
<path opacity="0.79" d="M-101.517 62.3815C-47.2683 51.6607 13.9051 63.24 58.7261 85.0939C102.713 106.654 133.1 136.698 156.618 166.929C203.608 227.328 233.681 293.245 290.553 346.747C348.194 400.582 427.583 439.879 527.765 469.635C604.383 492.449 690.493 507.976 772.162 526.537C788.079 530.169 803.662 533.886 818.93 537.653C913.503 561.015 997.203 587.1 1086.79 612.597C1104.8 617.731 1123.12 622.86 1141.8 627.933C1215.85 647.99 1292.95 668.703 1366.53 693.2C1419.18 710.716 1469.52 730.706 1512.34 750.865C1544.37 765.947 1572.05 781.181 1593.37 795.37" stroke="#330074" stroke-width="1.5" stroke-miterlimit="10"/>
<path opacity="0.74" d="M-96.8355 57.3996C-43.0504 45.4813 19.4394 57.4391 63.3333 80.1685C106.523 102.649 134.361 133.829 155.404 164.969C197.295 226.977 221.713 293.793 271.623 350.074C322.173 406.632 394.6 451.345 492.122 484.264C566.755 509.518 652.856 525.814 735.657 542.918C751.768 546.262 767.611 549.606 783.184 552.944C879.621 573.617 967.196 594.652 1059.56 616.466C1078.13 620.861 1096.97 625.3 1116.1 629.78C1192 647.482 1270.23 666.963 1343.38 692.133C1395.69 710.118 1444.77 731.678 1484.57 754.057C1514.4 770.833 1538.87 788.134 1555.64 804.571" stroke="#3D008B" stroke-width="1.5" stroke-miterlimit="10"/>
<path opacity="0.7" d="M-92.1541 52.4176C-38.8325 39.3019 24.9829 51.6438 67.9405 75.243C110.333 98.6445 135.631 130.954 154.19 163.014C191.01 226.627 209.745 294.352 252.694 353.407C296.152 412.681 361.617 462.817 456.469 498.894C529.11 526.582 615.21 543.658 699.142 559.298C715.439 562.354 731.55 565.331 747.43 568.228C845.73 586.213 937.179 602.193 1032.33 620.33C1051.45 623.979 1070.82 627.74 1090.39 631.621C1168.12 646.973 1247.49 665.218 1320.21 691.06C1372.18 709.513 1420.01 732.644 1456.8 757.243C1484.43 775.724 1505.71 795.081 1517.91 813.767" stroke="#4700A2" stroke-width="1.5" stroke-miterlimit="10"/>
<path opacity="0.66" d="M-87.4821 47.4413C-34.6239 33.1282 30.5171 45.8541 72.5384 70.3232C114.133 94.6398 137.012 128.062 152.975 161.06C184.948 226.237 197.777 294.906 233.755 356.739C270.121 418.737 328.625 474.283 420.816 513.523C491.473 543.646 577.564 561.495 662.627 575.673C679.118 578.435 695.489 581.045 711.684 583.513C811.847 598.804 907.172 609.739 1005.1 624.193C1024.78 627.102 1044.67 630.181 1064.69 633.462C1144.25 646.459 1224.76 663.473 1297.06 689.981C1348.69 708.903 1395.18 733.643 1429.03 760.423C1454.4 780.633 1472.54 802.018 1480.2 822.951" stroke="#5100B9" stroke-width="1.5" stroke-miterlimit="10"/>
<path opacity="0.62" d="M-82.8006 42.4594C-30.406 26.9544 36.0606 40.0588 77.1365 65.3921C117.934 90.6294 138.273 125.187 151.751 159.1C178.635 225.893 185.801 295.459 214.816 360.066C244.091 424.786 295.633 485.75 385.163 528.153C453.827 560.71 539.918 579.333 626.103 592.054C642.789 594.528 659.419 596.77 675.92 598.804C777.947 611.405 877.146 617.291 977.856 628.062C998.084 630.231 1018.5 632.621 1038.97 635.309C1120.38 645.951 1202.02 661.733 1273.89 688.913C1325.17 708.304 1370.4 734.609 1401.24 763.614C1424.41 785.519 1439.35 808.971 1442.46 832.152" stroke="#5C00D1" stroke-width="1.5" stroke-miterlimit="10"/>
<path opacity="0.57" d="M-78.1192 37.4775C-26.1881 20.775 41.6042 34.2578 81.7437 60.4667C121.744 86.6246 139.533 122.323 150.537 157.14C172.331 225.548 173.833 296.007 195.886 363.393C218.07 430.83 262.64 497.216 349.52 542.777C416.2 577.769 502.282 597.171 589.597 608.428C606.478 610.609 623.368 612.484 640.175 614.083C744.074 623.99 847.139 624.826 950.63 631.92C971.414 633.349 992.346 635.055 1013.27 637.145C1096.51 645.437 1179.29 659.982 1250.73 687.829C1301.68 707.683 1345.64 735.558 1373.48 766.788C1394.44 790.388 1406.18 815.907 1404.74 841.331" stroke="#6600E8" stroke-width="1.5" stroke-miterlimit="10"/>
<path opacity="0.53" d="M-73.4378 32.4955C-21.9702 14.5956 47.1477 28.4625 86.3509 55.5412C125.554 82.6199 140.804 119.453 149.332 155.185C166.037 225.209 161.874 296.566 176.966 366.726C192.058 436.885 229.667 508.682 313.876 557.412C391.05 602.063 498.667 622.16 604.429 629.378C710.192 636.597 817.132 632.383 923.404 635.795C1029.68 639.207 1138.72 651.08 1227.58 686.767C1316.44 722.454 1380.95 786.253 1367.02 850.538" stroke="#7000FF" stroke-width="1.5" stroke-miterlimit="10"/>
<path opacity="0.57" d="M-30.2484 29.8521C22.7766 13.11 92.1355 25.8417 133.888 51.367C175.353 76.8528 194.524 111.935 206.834 146.871C222.473 191.279 228.221 237.523 233.393 283.846C236.249 309.366 239.002 334.902 243.479 360.286C247.104 380.841 252.082 401.503 259.044 421.708C276.314 471.73 305.784 518.991 358.03 555.813C365.641 561.179 373.641 566.263 381.984 571.081C447.282 608.824 533.782 632.192 625.602 641.54C723.578 651.515 823.991 647.533 923.766 651.78C1023.47 656.005 1126.05 667.641 1210.4 700.724C1294.69 733.802 1356.98 792.235 1347.89 851.001" stroke="#7708E8" stroke-width="1.5" stroke-miterlimit="10"/>
<path opacity="0.62" d="M12.9503 27.2029C67.5419 11.6132 137.235 23.1474 181.425 47.1872C225.616 71.227 248.281 104.423 264.337 138.551C284.879 182.225 294.233 229.005 300.416 276.062C303.818 301.994 306.414 327.994 310.001 353.83C312.903 374.763 316.676 395.787 321.96 416.342C335.105 467.178 357.687 515.274 402.183 554.203C408.663 559.874 415.523 565.297 422.735 570.488C479.144 611.179 556.614 641.257 646.766 653.684C736.815 666.099 830.851 662.671 924.109 667.749C1017.25 672.787 1113.35 684.185 1193.18 714.664C1272.91 745.127 1332.98 798.199 1328.73 851.442" stroke="#7E11D1" stroke-width="1.5" stroke-miterlimit="10"/>
<path opacity="0.66" d="M56.1489 24.5595C112.298 10.1277 182.259 20.4982 228.971 43.013C275.072 65.2283 302.075 96.9161 321.849 130.236C347.332 173.176 360.264 220.493 367.439 268.29C371.397 294.634 373.817 321.092 376.524 347.391C378.711 368.708 381.261 390.082 384.876 410.987C393.905 462.642 409.599 511.569 446.346 552.611C451.704 558.592 457.424 564.354 463.496 569.917C511.024 613.557 579.196 650.165 667.948 665.851C749.997 680.35 837.72 677.825 924.479 683.745C1011.06 689.602 1100.68 700.758 1176 728.639C1251.18 756.486 1309.02 804.198 1309.61 851.916" stroke="#8619B9" stroke-width="1.5" stroke-miterlimit="10"/>
<path opacity="0.7" d="M99.3383 21.9103C157.045 8.63084 227.256 17.8491 276.499 38.8331C324.861 59.4386 355.879 89.4037 379.342 121.922C409.803 164.133 426.267 211.981 434.452 260.518C438.967 287.269 441.22 314.195 443.037 340.946C444.501 362.642 445.845 384.377 447.792 405.632C452.696 458.106 461.512 507.863 490.509 551.012C494.736 557.299 499.315 563.399 504.256 569.336C542.903 615.924 601.583 658.835 689.121 678.006C763.152 694.223 844.59 692.969 924.841 699.724C1004.86 706.395 1088 717.314 1158.82 742.591C1229.43 767.828 1285.05 810.174 1290.46 852.374" stroke="#8D21A2" stroke-width="1.5" stroke-miterlimit="10"/>
<path opacity="0.74" d="M142.537 19.2669C201.801 7.14529 272.263 15.2169 324.046 34.6532C375.828 54.0896 409.729 81.8856 436.853 113.602C472.33 155.073 492.298 203.463 501.485 252.74C506.546 279.903 508.632 307.287 509.568 334.501C510.319 356.575 510.44 378.672 510.718 400.277C511.496 453.571 513.434 504.158 534.672 549.413C537.768 556.005 541.207 562.45 545.017 568.759C574.774 618.296 623.906 667.223 710.303 690.167C776.38 707.717 851.468 708.118 925.212 715.709C998.668 723.194 1075.33 733.875 1141.64 756.548C1207.69 779.17 1261.09 816.156 1271.34 852.831" stroke="#942A8B" stroke-width="1.5" stroke-miterlimit="10"/>
<path opacity="0.79" d="M185.736 16.6178C246.566 5.64846 317.251 12.5848 371.592 30.4734C424.459 47.8819 463.598 74.3619 494.365 105.281C534.885 146.001 558.329 194.945 568.507 244.962C574.125 272.532 576.035 300.385 576.081 328.056C576.109 350.515 575.024 372.962 573.624 394.917C570.278 449.024 565.337 500.453 578.825 547.809C580.79 554.712 583.098 561.49 585.768 568.178C606.645 620.663 646.283 675.255 731.466 702.323C789.738 720.838 858.319 723.267 925.555 731.689C992.448 739.987 1062.63 750.43 1124.44 770.499C1185.92 790.512 1237.1 822.132 1252.19 853.283" stroke="#9B3274" stroke-width="1.5" stroke-miterlimit="10"/>
<path opacity="0.83" d="M228.925 13.9686C291.313 4.15727 362.229 9.95823 419.12 26.2935C474.23 42.1149 517.476 66.8268 551.858 96.9613C597.449 136.918 624.332 186.427 635.521 237.184C641.686 265.166 643.438 293.476 642.594 321.606C641.908 344.442 639.6 367.251 636.531 389.557C629.06 444.482 617.24 496.742 622.979 546.211C623.813 553.418 624.981 560.541 626.52 567.596C638.515 623.024 668.968 682.858 752.639 714.478C803.338 733.638 865.188 738.411 925.916 747.674C986.246 756.791 1049.96 766.992 1107.25 784.457C1164.18 801.854 1213.13 828.114 1233.05 853.746" stroke="#A23B5D" stroke-width="1.5" stroke-miterlimit="10"/>
<path opacity="0.87" d="M272.124 11.3252C336.069 2.66608 407.208 7.35429 466.666 22.1193C524.011 36.3647 571.39 59.2861 609.37 88.6468C660.059 127.83 690.363 177.915 702.553 229.406C709.274 257.801 710.85 286.574 709.126 315.161C707.717 338.382 704.203 361.54 699.457 384.196C687.869 439.941 669.162 493.031 667.141 544.607C666.845 552.119 666.882 559.586 667.29 567.014C670.395 625.391 692.254 689.958 773.831 726.634C817.271 746.166 872.066 753.554 926.296 763.654C980.063 773.584 1037.3 783.547 1090.08 798.408C1142.45 813.196 1189.19 834.09 1213.94 854.198" stroke="#A94346" stroke-width="1.5" stroke-miterlimit="10"/>
<path opacity="0.91" d="M315.322 8.67603C380.834 1.17489 452.149 4.81814 514.203 17.9395C573.745 30.6824 625.305 51.7285 666.872 80.3266C722.669 118.719 756.375 169.397 769.567 221.628C776.844 250.43 778.243 279.666 775.639 308.71C773.516 332.31 768.779 355.83 762.364 378.836C746.651 435.394 721.065 489.32 711.295 543.002C709.876 550.826 708.764 558.626 708.041 566.427C702.266 627.752 716.514 696.499 794.995 738.789C831.602 758.513 878.926 768.698 926.648 779.633C973.843 790.376 1024.61 800.109 1072.88 812.36C1120.68 824.532 1165.2 840.066 1194.79 854.656" stroke="#B14B2E" stroke-width="1.5" stroke-miterlimit="10"/>
<path opacity="0.96" d="M358.521 6.03256C425.59 -0.316299 497.155 2.19726 561.75 13.7653C623.553 24.921 679.313 44.1144 724.393 72.0178C785.419 109.535 822.415 160.89 836.608 213.862C844.432 243.075 845.674 272.775 842.179 302.277C839.333 326.26 833.391 350.136 825.299 373.492C805.461 430.869 772.997 485.626 755.467 541.415C752.918 549.543 750.665 557.688 748.811 565.862C734.155 630.135 742.266 702.486 816.186 750.961C846.453 770.81 885.814 783.864 927.019 795.629C967.65 807.186 1011.94 816.681 1055.7 826.329C1098.94 835.886 1141.23 846.059 1175.66 855.125" stroke="#B85417" stroke-width="1.5" stroke-miterlimit="10"/>
<path d="M401.711 3.38343C535.83 -6.76119 682.094 8.16202 781.887 63.6919C847.936 100.446 888.428 152.367 903.622 206.078C918.815 259.789 909.972 315.263 888.205 368.126C860.757 434.795 813.108 498.052 789.562 565.274C766.016 632.497 769.984 707.977 837.35 763.111C909.592 822.239 1036.84 844.777 1156.52 855.576" stroke="#BF5C00" stroke-width="1.5" stroke-miterlimit="10"/>
</svg>
